<svg xmlns="http://www.w3.org/2000/svg" xmlns:xlink="http://www.w3.org/1999/xlink" contentStyleType="text/css" height="1003px" preserveAspectRatio="none" style="width:1575px;height:1003px;background:#FFFFFF;" version="1.1" viewBox="0 0 1575 1003" width="1575px" zoomAndPan="magnify"><defs/><g><!--cluster Nest Application--><g id="cluster_Nest Application"><path d="M8.5,6 L139.9092,6 A3.75,3.75 0 0 1 142.4092,8.5 L149.4092,28.2969 L1565.5,28.2969 A2.5,2.5 0 0 1 1568,30.7969 L1568,993.62 A2.5,2.5 0 0 1 1565.5,996.12 L8.5,996.12 A2.5,2.5 0 0 1 6,993.62 L6,8.5 A2.5,2.5 0 0 1 8.5,6 " fill="none" style="stroke:#000000;stroke-width:1.5;"/><line style="stroke:#000000;stroke-width:1.5;" x1="6" x2="149.4092" y1="28.2969" y2="28.2969"/><text fill="#000000" font-family="sans-serif" font-size="14" font-weight="bold" lengthAdjust="spacing" textLength="130.4092" x="10" y="20.9951">Nest Application</text></g><!--class ApplicationConfig--><g id="elem_ApplicationConfig"><rect codeLine="2" fill="#F1F1F1" height="48" id="ApplicationConfig" rx="2.5" ry="2.5" style="stroke:#181818;stroke-width:0.5;" width="155.1426" x="822.43" y="494.71"/><ellipse cx="837.43" cy="510.71" fill="#ADD1B2" rx="11" ry="11" style="stroke:#181818;stroke-width:1.0;"/><path d="M840.3988,516.3506 Q839.8206,516.6475 839.18,516.7881 Q838.5394,516.9444 837.8363,516.9444 Q835.3363,516.9444 834.0081,515.3038 Q832.6956,513.6475 832.6956,510.5225 Q832.6956,507.3975 834.0081,505.7413 Q835.3363,504.085 837.8363,504.085 Q838.5394,504.085 839.18,504.2413 Q839.8363,504.3975 840.3988,504.6944 L840.3988,507.4131 Q839.7738,506.835 839.18,506.5694 Q838.5863,506.2881 837.9613,506.2881 Q836.6175,506.2881 835.93,507.3663 Q835.2425,508.4288 835.2425,510.5225 Q835.2425,512.6163 835.93,513.6944 Q836.6175,514.7569 837.9613,514.7569 Q838.5863,514.7569 839.18,514.4913 Q839.7738,514.21 840.3988,513.6319 L840.3988,516.3506 Z " fill="#000000"/><text fill="#000000" font-family="sans-serif" font-size="14" lengthAdjust="spacing" textLength="123.1426" x="851.43" y="515.5567">ApplicationConfig</text><line style="stroke:#181818;stroke-width:0.5;" x1="823.43" x2="976.5726" y1="526.71" y2="526.71"/><line style="stroke:#181818;stroke-width:0.5;" x1="823.43" x2="976.5726" y1="534.71" y2="534.71"/></g><!--class HttpServer--><g id="elem_HttpServer"><rect codeLine="5" fill="#F1F1F1" height="129.4844" id="HttpServer" rx="2.5" ry="2.5" style="stroke:#181818;stroke-width:0.5;" width="285.9297" x="501.04" y="453.96"/><ellipse cx="601.6035" cy="469.96" fill="#ADD1B2" rx="11" ry="11" style="stroke:#181818;stroke-width:1.0;"/><path d="M604.5722,475.6006 Q603.9941,475.8975 603.3535,476.0381 Q602.7129,476.1944 602.0097,476.1944 Q599.5097,476.1944 598.1816,474.5538 Q596.8691,472.8975 596.8691,469.7725 Q596.8691,466.6475 598.1816,464.9913 Q599.5097,463.335 602.0097,463.335 Q602.7129,463.335 603.3535,463.4913 Q604.0097,463.6475 604.5722,463.9444 L604.5722,466.6631 Q603.9472,466.085 603.3535,465.8194 Q602.7597,465.5381 602.1347,465.5381 Q600.791,465.5381 600.1035,466.6163 Q599.416,467.6788 599.416,469.7725 Q599.416,471.8663 600.1035,472.9444 Q600.791,474.0069 602.1347,474.0069 Q602.7597,474.0069 603.3535,473.7413 Q603.9472,473.46 604.5722,472.8819 L604.5722,475.6006 Z " fill="#000000"/><text fill="#000000" font-family="sans-serif" font-size="14" lengthAdjust="spacing" textLength="76.3027" x="622.1035" y="474.8067">HttpServer</text><line style="stroke:#181818;stroke-width:0.5;" x1="502.04" x2="785.9697" y1="485.96" y2="485.96"/><rect fill="none" height="6" style="stroke:#C82930;stroke-width:1.0;" width="6" x="509.04" y="496.6084"/><text fill="#000000" font-family="sans-serif" font-size="14" lengthAdjust="spacing" textLength="172.9355" x="521.04" y="502.9551">app: express.Application</text><line style="stroke:#181818;stroke-width:0.5;" x1="502.04" x2="785.9697" y1="510.2569" y2="510.2569"/><ellipse cx="512.04" cy="523.9053" fill="#84BE84" rx="3" ry="3" style="stroke:#038048;stroke-width:1.0;"/><text fill="#000000" font-family="sans-serif" font-size="14" lengthAdjust="spacing" textLength="87.2266" x="521.04" y="527.252">HttpServer()</text><rect fill="#F24D5C" height="6" style="stroke:#C82930;stroke-width:1.0;" width="6" x="509.04" y="537.2022"/><text fill="#000000" font-family="sans-serif" font-size="14" lengthAdjust="spacing" textLength="98.6426" x="521.04" y="543.5489">setupRoutes()</text><ellipse cx="512.04" cy="556.4991" fill="#84BE84" rx="3" ry="3" style="stroke:#038048;stroke-width:1.0;"/><text fill="#000000" font-family="sans-serif" font-size="14" lengthAdjust="spacing" textLength="259.9297" x="521.04" y="559.8457">listen(port: number): Promise&lt;void&gt;</text><ellipse cx="512.04" cy="572.7959" fill="#84BE84" rx="3" ry="3" style="stroke:#038048;stroke-width:1.0;"/><text fill="#000000" font-family="sans-serif" font-size="14" lengthAdjust="spacing" textLength="207.8467" x="521.04" y="576.1426">getApp(): express.Application</text></g><!--class INestApplication--><g id="elem_INestApplication"><rect codeLine="13" fill="#F1F1F1" height="162.0781" id="INestApplication" rx="2.5" ry="2.5" style="stroke:#181818;stroke-width:0.5;" width="510.9824" x="439.51" y="198.59"/><ellipse cx="633.6404" cy="214.59" fill="#ADD1B2" rx="11" ry="11" style="stroke:#181818;stroke-width:1.0;"/><path d="M636.6091,220.2306 Q636.031,220.5275 635.3904,220.6681 Q634.7497,220.8244 634.0466,220.8244 Q631.5466,220.8244 630.2185,219.1838 Q628.906,217.5275 628.906,214.4025 Q628.906,211.2775 630.2185,209.6213 Q631.5466,207.965 634.0466,207.965 Q634.7497,207.965 635.3904,208.1213 Q636.0466,208.2775 636.6091,208.5744 L636.6091,211.2931 Q635.9841,210.715 635.3904,210.4494 Q634.7966,210.1681 634.1716,210.1681 Q632.8279,210.1681 632.1404,211.2463 Q631.4529,212.3088 631.4529,214.4025 Q631.4529,216.4963 632.1404,217.5744 Q632.8279,218.6369 634.1716,218.6369 Q634.7966,218.6369 635.3904,218.3713 Q635.9841,218.09 636.6091,217.5119 L636.6091,220.2306 Z " fill="#000000"/><text fill="#000000" font-family="sans-serif" font-size="14" lengthAdjust="spacing" textLength="114.2217" x="654.1404" y="219.4367">INestApplication</text><line style="stroke:#181818;stroke-width:0.5;" x1="440.51" x2="949.4924" y1="230.59" y2="230.59"/><rect fill="none" height="6" style="stroke:#C82930;stroke-width:1.0;" width="6" x="447.51" y="241.2384"/><text fill="#000000" font-family="sans-serif" font-size="14" lengthAdjust="spacing" textLength="160.1182" x="459.51" y="247.5851">httpServer: HttpServer</text><line style="stroke:#181818;stroke-width:0.5;" x1="440.51" x2="949.4924" y1="254.8869" y2="254.8869"/><ellipse cx="450.51" cy="268.5353" fill="#84BE84" rx="3" ry="3" style="stroke:#038048;stroke-width:1.0;"/><text fill="#000000" font-family="sans-serif" font-size="14" lengthAdjust="spacing" textLength="484.9824" x="459.51" y="271.882">INestApplication(container: NestContainer, config: ApplicationConfig)</text><ellipse cx="450.51" cy="284.8322" fill="#84BE84" rx="3" ry="3" style="stroke:#038048;stroke-width:1.0;"/><text fill="#000000" font-family="sans-serif" font-size="14" lengthAdjust="spacing" textLength="151.5186" x="459.51" y="288.1789">init(): Promise&lt;void&gt;</text><rect fill="#F24D5C" height="6" style="stroke:#C82930;stroke-width:1.0;" width="6" x="447.51" y="298.1291"/><text fill="#000000" font-family="sans-serif" font-size="14" lengthAdjust="spacing" textLength="245.9297" x="459.51" y="304.4757">initializeModules(): Promise&lt;void&gt;</text><rect fill="#F24D5C" height="6" style="stroke:#C82930;stroke-width:1.0;" width="6" x="447.51" y="314.4259"/><text fill="#000000" font-family="sans-serif" font-size="14" lengthAdjust="spacing" textLength="326.0059" x="459.51" y="320.7726">initializeModule(module: any): Promise&lt;void&gt;</text><rect fill="#F24D5C" height="6" style="stroke:#C82930;stroke-width:1.0;" width="6" x="447.51" y="330.7228"/><text fill="#000000" font-family="sans-serif" font-size="14" lengthAdjust="spacing" textLength="339.4658" x="459.51" y="337.0695">initializeProvider(provider: any): Promise&lt;void&gt;</text><ellipse cx="450.51" cy="350.0197" fill="#84BE84" rx="3" ry="3" style="stroke:#038048;stroke-width:1.0;"/><text fill="#000000" font-family="sans-serif" font-size="14" lengthAdjust="spacing" textLength="259.9297" x="459.51" y="353.3664">listen(port: number): Promise&lt;void&gt;</text></g><!--class OnModuleInit--><g id="elem_OnModuleInit"><rect codeLine="23" fill="#F1F1F1" height="64.2969" id="OnModuleInit" rx="2.5" ry="2.5" style="stroke:#181818;stroke-width:0.5;" width="289.3477" x="395.33" y="915.82"/><ellipse cx="489.1635" cy="931.82" fill="#B4A7E5" rx="11" ry="11" style="stroke:#181818;stroke-width:1.0;"/><path d="M485.0854,927.5856 L485.0854,925.4294 L492.476,925.4294 L492.476,927.5856 L490.0072,927.5856 L490.0072,935.6638 L492.476,935.6638 L492.476,937.82 L485.0854,937.82 L485.0854,935.6638 L487.5541,935.6638 L487.5541,927.5856 L485.0854,927.5856 Z " fill="#000000"/><text fill="#000000" font-family="sans-serif" font-size="14" font-style="italic" lengthAdjust="spacing" textLength="93.1807" x="509.6635" y="936.6667">OnModuleInit</text><line style="stroke:#181818;stroke-width:0.5;" x1="396.33" x2="683.6777" y1="947.82" y2="947.82"/><line style="stroke:#181818;stroke-width:0.5;" x1="396.33" x2="683.6777" y1="955.82" y2="955.82"/><ellipse cx="406.33" cy="969.4684" fill="#84BE84" rx="3" ry="3" style="stroke:#038048;stroke-width:1.0;"/><text fill="#000000" font-family="sans-serif" font-size="14" lengthAdjust="spacing" textLength="263.3477" x="415.33" y="972.8151">onModuleInit(): Promise&lt;void&gt; | void</text></g><!--class NestContainer--><g id="elem_NestContainer"><rect codeLine="27" fill="#F1F1F1" height="162.0781" id="NestContainer" rx="2.5" ry="2.5" style="stroke:#181818;stroke-width:0.5;" width="443.4707" x="22.26" y="437.67"/><ellipse cx="189.6038" cy="453.67" fill="#ADD1B2" rx="11" ry="11" style="stroke:#181818;stroke-width:1.0;"/><path d="M192.5725,459.3106 Q191.9944,459.6075 191.3538,459.7481 Q190.7131,459.9044 190.01,459.9044 Q187.51,459.9044 186.1819,458.2637 Q184.8694,456.6075 184.8694,453.4825 Q184.8694,450.3575 186.1819,448.7012 Q187.51,447.045 190.01,447.045 Q190.7131,447.045 191.3538,447.2012 Q192.01,447.3575 192.5725,447.6544 L192.5725,450.3731 Q191.9475,449.795 191.3538,449.5294 Q190.76,449.2481 190.135,449.2481 Q188.7913,449.2481 188.1038,450.3262 Q187.4163,451.3887 187.4163,453.4825 Q187.4163,455.5762 188.1038,456.6544 Q188.7913,457.7169 190.135,457.7169 Q190.76,457.7169 191.3538,457.4512 Q191.9475,457.17 192.5725,456.5919 L192.5725,459.3106 Z " fill="#000000"/><text fill="#000000" font-family="sans-serif" font-size="14" lengthAdjust="spacing" textLength="100.2832" x="210.1038" y="458.5167">NestContainer</text><line style="stroke:#181818;stroke-width:0.5;" x1="23.26" x2="464.7307" y1="469.67" y2="469.67"/><rect fill="none" height="6" style="stroke:#C82930;stroke-width:1.0;" width="6" x="30.26" y="480.3184"/><text fill="#000000" font-family="sans-serif" font-size="14" lengthAdjust="spacing" textLength="196.7588" x="42.26" y="486.6651">modules: Map&lt;string, any&gt;</text><rect fill="none" height="6" style="stroke:#C82930;stroke-width:1.0;" width="6" x="30.26" y="496.6153"/><text fill="#000000" font-family="sans-serif" font-size="14" lengthAdjust="spacing" textLength="202.9316" x="42.26" y="502.962">providers: Map&lt;string, any&gt;</text><rect fill="none" height="6" style="stroke:#C82930;stroke-width:1.0;" width="6" x="30.26" y="512.9122"/><text fill="#000000" font-family="sans-serif" font-size="14" lengthAdjust="spacing" textLength="203.6016" x="42.26" y="519.2589">instances: Map&lt;string, any&gt;</text><line style="stroke:#181818;stroke-width:0.5;" x1="23.26" x2="464.7307" y1="526.5606" y2="526.5606"/><ellipse cx="33.26" cy="540.2091" fill="#84BE84" rx="3" ry="3" style="stroke:#038048;stroke-width:1.0;"/><text fill="#000000" font-family="sans-serif" font-size="14" lengthAdjust="spacing" textLength="417.4707" x="42.26" y="543.5557">addModule(module: any, metadata: ModuleMetadata): void</text><ellipse cx="33.26" cy="556.5059" fill="#84BE84" rx="3" ry="3" style="stroke:#038048;stroke-width:1.0;"/><text fill="#000000" font-family="sans-serif" font-size="14" lengthAdjust="spacing" textLength="227.8076" x="42.26" y="559.8526">addProvider(provider: any): void</text><ellipse cx="33.26" cy="572.8028" fill="#84BE84" rx="3" ry="3" style="stroke:#038048;stroke-width:1.0;"/><text fill="#000000" font-family="sans-serif" font-size="14" lengthAdjust="spacing" textLength="137.9424" x="42.26" y="576.1495">getModules(): any[]</text><ellipse cx="33.26" cy="589.0997" fill="#84BE84" rx="3" ry="3" style="stroke:#038048;stroke-width:1.0;"/><text fill="#000000" font-family="sans-serif" font-size="14" lengthAdjust="spacing" textLength="246.2578" x="42.26" y="592.4464">resolveDependency(dep: any): any</text></g><!--class NestFactory--><g id="elem_NestFactory"><rect codeLine="37" fill="#F1F1F1" height="80.5938" id="NestFactory" rx="2.5" ry="2.5" style="stroke:#181818;stroke-width:0.5;" width="532.6387" x="234.68" y="41"/><ellipse cx="454.6024" cy="57" fill="#ADD1B2" rx="11" ry="11" style="stroke:#181818;stroke-width:1.0;"/><path d="M457.5711,62.6406 Q456.993,62.9375 456.3524,63.0781 Q455.7117,63.2344 455.0086,63.2344 Q452.5086,63.2344 451.1805,61.5938 Q449.868,59.9375 449.868,56.8125 Q449.868,53.6875 451.1805,52.0313 Q452.5086,50.375 455.0086,50.375 Q455.7117,50.375 456.3524,50.5313 Q457.0086,50.6875 457.5711,50.9844 L457.5711,53.7031 Q456.9461,53.125 456.3524,52.8594 Q455.7586,52.5781 455.1336,52.5781 Q453.7899,52.5781 453.1024,53.6563 Q452.4149,54.7188 452.4149,56.8125 Q452.4149,58.9063 453.1024,59.9844 Q453.7899,61.0469 455.1336,61.0469 Q455.7586,61.0469 456.3524,60.7813 Q456.9461,60.5 457.5711,59.9219 L457.5711,62.6406 Z " fill="#000000"/><text fill="#000000" font-family="sans-serif" font-size="14" lengthAdjust="spacing" textLength="84.2939" x="475.1024" y="61.8467">NestFactory</text><line style="stroke:#181818;stroke-width:0.5;" x1="235.68" x2="766.3187" y1="73" y2="73"/><line style="stroke:#181818;stroke-width:0.5;" x1="235.68" x2="766.3187" y1="81" y2="81"/><ellipse cx="245.68" cy="94.6484" fill="#84BE84" rx="3" ry="3" style="stroke:#038048;stroke-width:1.0;"/><text fill="#000000" font-family="sans-serif" font-size="14" lengthAdjust="spacing" textLength="346.0898" x="254.68" y="97.9951">create(module: any): Promise&lt;INestApplication&gt;</text><ellipse cx="245.68" cy="110.9453" fill="#84BE84" rx="3" ry="3" style="stroke:#038048;stroke-width:1.0;"/><text fill="#000000" font-family="sans-serif" font-size="14" lengthAdjust="spacing" textLength="506.6387" x="254.68" y="114.292">registerModule(container: NestContainer, module: any): Promise&lt;void&gt;</text></g><!--class LoggerService--><g id="elem_LoggerService"><rect codeLine="42" fill="#F1F1F1" height="162.0781" id="LoggerService" rx="2.5" ry="2.5" style="stroke:#181818;stroke-width:0.5;" width="398.415" x="147.79" y="676.75"/><ellipse cx="292.623" cy="692.75" fill="#ADD1B2" rx="11" ry="11" style="stroke:#181818;stroke-width:1.0;"/><path d="M295.5918,698.3906 Q295.0136,698.6875 294.373,698.8281 Q293.7324,698.9844 293.0293,698.9844 Q290.5293,698.9844 289.2011,697.3438 Q287.8886,695.6875 287.8886,692.5625 Q287.8886,689.4375 289.2011,687.7813 Q290.5293,686.125 293.0293,686.125 Q293.7324,686.125 294.373,686.2813 Q295.0293,686.4375 295.5918,686.7344 L295.5918,689.4531 Q294.9668,688.875 294.373,688.6094 Q293.7793,688.3281 293.1543,688.3281 Q291.8105,688.3281 291.123,689.4063 Q290.4355,690.4688 290.4355,692.5625 Q290.4355,694.6563 291.123,695.7344 Q291.8105,696.7969 293.1543,696.7969 Q293.7793,696.7969 294.373,696.5313 Q294.9668,696.25 295.5918,695.6719 L295.5918,698.3906 Z " fill="#000000"/><text fill="#000000" font-family="sans-serif" font-size="14" lengthAdjust="spacing" textLength="100.249" x="313.123" y="697.5967">LoggerService</text><line style="stroke:#181818;stroke-width:0.5;" x1="148.79" x2="545.205" y1="708.75" y2="708.75"/><line style="stroke:#181818;stroke-width:0.5;" x1="148.79" x2="545.205" y1="716.75" y2="716.75"/><ellipse cx="158.79" cy="730.3984" fill="#84BE84" rx="3" ry="3" style="stroke:#038048;stroke-width:1.0;"/><text fill="#000000" font-family="sans-serif" font-size="14" lengthAdjust="spacing" textLength="111.1729" x="167.79" y="733.7451">LoggerService()</text><rect fill="#F24D5C" height="6" style="stroke:#C82930;stroke-width:1.0;" width="6" x="155.79" y="743.6953"/><text fill="#000000" font-family="sans-serif" font-size="14" lengthAdjust="spacing" textLength="372.415" x="167.79" y="750.042">formatMessage(level: string, message: string): string</text><ellipse cx="158.79" cy="762.9922" fill="#84BE84" rx="3" ry="3" style="stroke:#038048;stroke-width:1.0;"/><text fill="#000000" font-family="sans-serif" font-size="14" lengthAdjust="spacing" textLength="183.333" x="167.79" y="766.3389">log(message: string): void</text><ellipse cx="158.79" cy="779.2891" fill="#84BE84" rx="3" ry="3" style="stroke:#038048;stroke-width:1.0;"/><text fill="#000000" font-family="sans-serif" font-size="14" lengthAdjust="spacing" textLength="298.2588" x="167.79" y="782.6357">error(message: string, trace?: string): void</text><ellipse cx="158.79" cy="795.5859" fill="#84BE84" rx="3" ry="3" style="stroke:#038048;stroke-width:1.0;"/><text fill="#000000" font-family="sans-serif" font-size="14" lengthAdjust="spacing" textLength="196.6494" x="167.79" y="798.9326">warn(message: string): void</text><ellipse cx="158.79" cy="811.8828" fill="#84BE84" rx="3" ry="3" style="stroke:#038048;stroke-width:1.0;"/><text fill="#000000" font-family="sans-serif" font-size="14" lengthAdjust="spacing" textLength="206.1377" x="167.79" y="815.2295">debug(message: string): void</text><ellipse cx="158.79" cy="828.1797" fill="#84BE84" rx="3" ry="3" style="stroke:#038048;stroke-width:1.0;"/><text fill="#000000" font-family="sans-serif" font-size="14" lengthAdjust="spacing" textLength="218.0049" x="167.79" y="831.5264">verbose(message: string): void</text></g><!--class AppService--><g id="elem_AppService"><rect codeLine="52" fill="#F1F1F1" height="129.4844" id="AppService" rx="2.5" ry="2.5" style="stroke:#181818;stroke-width:0.5;" width="289.3477" x="769.33" y="693.04"/><ellipse cx="870.2079" cy="709.04" fill="#ADD1B2" rx="11" ry="11" style="stroke:#181818;stroke-width:1.0;"/><path d="M873.1767,714.6806 Q872.5986,714.9775 871.9579,715.1181 Q871.3173,715.2744 870.6142,715.2744 Q868.1142,715.2744 866.7861,713.6338 Q865.4736,711.9775 865.4736,708.8525 Q865.4736,705.7275 866.7861,704.0713 Q868.1142,702.415 870.6142,702.415 Q871.3173,702.415 871.9579,702.5713 Q872.6142,702.7275 873.1767,703.0244 L873.1767,705.7431 Q872.5517,705.165 871.9579,704.8994 Q871.3642,704.6181 870.7392,704.6181 Q869.3954,704.6181 868.7079,705.6963 Q868.0204,706.7588 868.0204,708.8525 Q868.0204,710.9463 868.7079,712.0244 Q869.3954,713.0869 870.7392,713.0869 Q871.3642,713.0869 871.9579,712.8213 Q872.5517,712.54 873.1767,711.9619 L873.1767,714.6806 Z " fill="#000000"/><text fill="#000000" font-family="sans-serif" font-size="14" lengthAdjust="spacing" textLength="79.0918" x="890.7079" y="713.8867">AppService</text><line style="stroke:#181818;stroke-width:0.5;" x1="770.33" x2="1057.6777" y1="725.04" y2="725.04"/><rect fill="none" height="6" style="stroke:#C82930;stroke-width:1.0;" width="6" x="777.33" y="735.6884"/><text fill="#000000" font-family="sans-serif" font-size="14" lengthAdjust="spacing" textLength="154.0137" x="789.33" y="742.0351">logger: LoggerService</text><line style="stroke:#181818;stroke-width:0.5;" x1="770.33" x2="1057.6777" y1="749.3369" y2="749.3369"/><ellipse cx="780.33" cy="762.9853" fill="#84BE84" rx="3" ry="3" style="stroke:#038048;stroke-width:1.0;"/><text fill="#000000" font-family="sans-serif" font-size="14" lengthAdjust="spacing" textLength="244.0293" x="789.33" y="766.332">AppService(logger: LoggerService)</text><ellipse cx="780.33" cy="779.2822" fill="#84BE84" rx="3" ry="3" style="stroke:#038048;stroke-width:1.0;"/><text fill="#000000" font-family="sans-serif" font-size="14" lengthAdjust="spacing" textLength="263.3477" x="789.33" y="782.6289">onModuleInit(): Promise&lt;void&gt; | void</text><ellipse cx="780.33" cy="795.5791" fill="#84BE84" rx="3" ry="3" style="stroke:#038048;stroke-width:1.0;"/><text fill="#000000" font-family="sans-serif" font-size="14" lengthAdjust="spacing" textLength="142.8848" x="789.33" y="798.9257">doSomething(): void</text><ellipse cx="780.33" cy="811.8759" fill="#84BE84" rx="3" ry="3" style="stroke:#038048;stroke-width:1.0;"/><text fill="#000000" font-family="sans-serif" font-size="14" lengthAdjust="spacing" textLength="104.0908" x="789.33" y="815.2226">doSomething()</text></g><!--class AppController--><g id="elem_AppController"><rect codeLine="59" fill="#F1F1F1" height="113.1875" id="AppController" rx="2.5" ry="2.5" style="stroke:#181818;stroke-width:0.5;" width="299.7998" x="1012.1" y="462.11"/><ellipse cx="1109.4882" cy="478.11" fill="#ADD1B2" rx="11" ry="11" style="stroke:#181818;stroke-width:1.0;"/><path d="M1112.4569,483.7506 Q1111.8788,484.0475 1111.2382,484.1881 Q1110.5976,484.3444 1109.8944,484.3444 Q1107.3944,484.3444 1106.0663,482.7038 Q1104.7538,481.0475 1104.7538,477.9225 Q1104.7538,474.7975 1106.0663,473.1413 Q1107.3944,471.485 1109.8944,471.485 Q1110.5976,471.485 1111.2382,471.6413 Q1111.8944,471.7975 1112.4569,472.0944 L1112.4569,474.8131 Q1111.8319,474.235 1111.2382,473.9694 Q1110.6444,473.6881 1110.0194,473.6881 Q1108.6757,473.6881 1107.9882,474.7663 Q1107.3007,475.8288 1107.3007,477.9225 Q1107.3007,480.0163 1107.9882,481.0944 Q1108.6757,482.1569 1110.0194,482.1569 Q1110.6444,482.1569 1111.2382,481.8913 Q1111.8319,481.61 1112.4569,481.0319 L1112.4569,483.7506 Z " fill="#000000"/><text fill="#000000" font-family="sans-serif" font-size="14" lengthAdjust="spacing" textLength="96.5234" x="1129.9882" y="482.9567">AppController</text><line style="stroke:#181818;stroke-width:0.5;" x1="1013.1" x2="1310.8998" y1="494.11" y2="494.11"/><rect fill="none" height="6" style="stroke:#C82930;stroke-width:1.0;" width="6" x="1020.1" y="504.7584"/><text fill="#000000" font-family="sans-serif" font-size="14" lengthAdjust="spacing" textLength="166.3525" x="1032.1" y="511.1051">appService: AppService</text><line style="stroke:#181818;stroke-width:0.5;" x1="1013.1" x2="1310.8998" y1="518.4069" y2="518.4069"/><ellipse cx="1023.1" cy="532.0553" fill="#84BE84" rx="3" ry="3" style="stroke:#038048;stroke-width:1.0;"/><text fill="#000000" font-family="sans-serif" font-size="14" lengthAdjust="spacing" textLength="273.7998" x="1032.1" y="535.402">AppController(appService: AppService)</text><ellipse cx="1023.1" cy="548.3522" fill="#84BE84" rx="3" ry="3" style="stroke:#038048;stroke-width:1.0;"/><text fill="#000000" font-family="sans-serif" font-size="14" lengthAdjust="spacing" textLength="144.0059" x="1032.1" y="551.6989">getExample(): string</text><ellipse cx="1023.1" cy="564.6491" fill="#84BE84" rx="3" ry="3" style="stroke:#038048;stroke-width:1.0;"/><text fill="#000000" font-family="sans-serif" font-size="14" lengthAdjust="spacing" textLength="94.6504" x="1032.1" y="567.9957">getExample()</text></g><!--class ModuleMetadata--><g id="elem_ModuleMetadata"><rect codeLine="65" fill="#F1F1F1" height="113.1875" id="ModuleMetadata" rx="2.5" ry="2.5" style="stroke:#181818;stroke-width:0.5;" width="153.6475" x="581.18" y="701.19"/><ellipse cx="598.1804" cy="717.19" fill="#B4A7E5" rx="11" ry="11" style="stroke:#181818;stroke-width:1.0;"/><path d="M594.1023,712.9556 L594.1023,710.7994 L601.4929,710.7994 L601.4929,712.9556 L599.0241,712.9556 L599.0241,721.0337 L601.4929,721.0337 L601.4929,723.19 L594.1023,723.19 L594.1023,721.0337 L596.571,721.0337 L596.571,712.9556 L594.1023,712.9556 Z " fill="#000000"/><text fill="#000000" font-family="sans-serif" font-size="14" font-style="italic" lengthAdjust="spacing" textLength="117.2021" x="612.6249" y="722.0367">ModuleMetadata</text><line style="stroke:#181818;stroke-width:0.5;" x1="582.18" x2="733.8275" y1="733.19" y2="733.19"/><ellipse cx="592.18" cy="746.8384" fill="none" rx="3" ry="3" style="stroke:#038048;stroke-width:1.0;"/><text fill="#000000" font-family="sans-serif" font-size="14" lengthAdjust="spacing" textLength="106.7773" x="601.18" y="750.1851">imports?: any[]</text><ellipse cx="592.18" cy="763.1353" fill="none" rx="3" ry="3" style="stroke:#038048;stroke-width:1.0;"/><text fill="#000000" font-family="sans-serif" font-size="14" lengthAdjust="spacing" textLength="127.6475" x="601.18" y="766.482">controllers?: any[]</text><ellipse cx="592.18" cy="779.4322" fill="none" rx="3" ry="3" style="stroke:#038048;stroke-width:1.0;"/><text fill="#000000" font-family="sans-serif" font-size="14" lengthAdjust="spacing" textLength="119.1914" x="601.18" y="782.7789">providers?: any[]</text><ellipse cx="592.18" cy="795.7291" fill="none" rx="3" ry="3" style="stroke:#038048;stroke-width:1.0;"/><text fill="#000000" font-family="sans-serif" font-size="14" lengthAdjust="spacing" textLength="106.1484" x="601.18" y="799.0757">exports?: any[]</text><line style="stroke:#181818;stroke-width:0.5;" x1="582.18" x2="733.8275" y1="806.3775" y2="806.3775"/></g><g id="elem_GMN13"><path d="M802.47,61.16 L802.47,77.29 L767.66,81.29 L802.47,85.29 L802.47,101.4256 A0,0 0 0 0 802.47,101.4256 L1077.5349,101.4256 A0,0 0 0 0 1077.5349,101.4256 L1077.5349,71.16 L1067.5349,61.16 L802.47,61.16 A0,0 0 0 0 802.47,61.16 " fill="#FEFFDD" style="stroke:#181818;stroke-width:0.5;"/><path d="M1067.5349,61.16 L1067.5349,71.16 L1077.5349,71.16 L1067.5349,61.16 " fill="#FEFFDD" style="stroke:#181818;stroke-width:0.5;"/><text fill="#000000" font-family="sans-serif" font-size="13" lengthAdjust="spacing" textLength="64.5874" x="808.47" y="78.2269">&#171;Factory&#187;</text><text fill="#000000" font-family="sans-serif" font-size="13" lengthAdjust="spacing" textLength="254.0649" x="808.47" y="93.3597">- Creates and initializes the application</text></g><g id="elem_GMN16"><path d="M1093.66,737.65 L1093.66,753.78 L1059.13,757.78 L1093.66,761.78 L1093.66,777.9156 A0,0 0 0 0 1093.66,777.9156 L1298.3485,777.9156 A0,0 0 0 0 1298.3485,777.9156 L1298.3485,747.65 L1288.3485,737.65 L1093.66,737.65 A0,0 0 0 0 1093.66,737.65 " fill="#FEFFDD" style="stroke:#181818;stroke-width:0.5;"/><path d="M1288.3485,737.65 L1288.3485,747.65 L1298.3485,747.65 L1288.3485,737.65 " fill="#FEFFDD" style="stroke:#181818;stroke-width:0.5;"/><text fill="#000000" font-family="sans-serif" font-size="13" lengthAdjust="spacing" textLength="63.9526" x="1099.66" y="754.7169">&#171;Service&#187;</text><text fill="#000000" font-family="sans-serif" font-size="13" lengthAdjust="spacing" textLength="183.6885" x="1099.66" y="769.8497">- Injectable by @Injectable()</text></g><g id="elem_GMN19"><path d="M1346.42,498.57 L1346.42,514.71 L1312.23,518.71 L1346.42,522.71 L1346.42,538.8356 A0,0 0 0 0 1346.42,538.8356 L1551.5846,538.8356 A0,0 0 0 0 1551.5846,538.8356 L1551.5846,508.57 L1541.5846,498.57 L1346.42,498.57 A0,0 0 0 0 1346.42,498.57 " fill="#FEFFDD" style="stroke:#181818;stroke-width:0.5;"/><path d="M1541.5846,498.57 L1541.5846,508.57 L1551.5846,508.57 L1541.5846,498.57 " fill="#FEFFDD" style="stroke:#181818;stroke-width:0.5;"/><text fill="#000000" font-family="sans-serif" font-size="13" lengthAdjust="spacing" textLength="80.1392" x="1352.42" y="515.6369">&#171;Controller&#187;</text><text fill="#000000" font-family="sans-serif" font-size="13" lengthAdjust="spacing" textLength="184.1646" x="1352.42" y="530.7697">- Injectable by @Controller()</text></g><!--link AppService to OnModuleInit--><g id="link_AppService_OnModuleInit"><path codeLine="87" d="M786.34,823.02 C724.44,854.17 668.9497,882.0903 618.9597,907.2403 " fill="none" id="AppService-to-OnModuleInit" style="stroke:#181818;stroke-width:1.0;stroke-dasharray:7.0,7.0;"/><polygon fill="none" points="602.88,915.33,621.6563,912.6002,616.2631,901.8804,602.88,915.33" style="stroke:#181818;stroke-width:1.0;"/><text fill="#000000" font-family="sans-serif" font-size="13" lengthAdjust="spacing" textLength="76.9082" x="694" y="881.8869">implements</text></g><!--link AppController to AppService--><g id="link_AppController_AppService"><path codeLine="88" d="M1103.54,575.59 C1066.74,610.77 1023.4673,652.1441 985.1673,688.7541 " fill="none" id="AppController-to-AppService" style="stroke:#181818;stroke-width:1.0;stroke-dasharray:7.0,7.0;"/><polygon fill="#181818" points="980.83,692.9,990.0998,689.5727,984.4444,689.4451,984.572,683.7897,980.83,692.9" style="stroke:#181818;stroke-width:1.0;"/><text fill="#000000" font-family="sans-serif" font-size="13" lengthAdjust="spacing" textLength="29.7832" x="1046" y="642.8169">uses</text></g><!--link NestFactory to INestApplication--><g id="link_NestFactory_INestApplication"><path codeLine="89" d="M540.26,122.02 C561.96,143.99 585.5026,167.8123 611.5126,194.1323 " fill="none" id="NestFactory-to-INestApplication" style="stroke:#181818;stroke-width:1.0;stroke-dasharray:7.0,7.0;"/><polygon fill="#181818" points="615.73,198.4,612.249,189.1868,612.2155,194.8436,606.5587,194.8101,615.73,198.4" style="stroke:#181818;stroke-width:1.0;"/><text fill="#000000" font-family="sans-serif" font-size="13" lengthAdjust="spacing" textLength="48.3247" x="581" y="164.6569">creates</text></g><!--link NestFactory to NestContainer--><g id="link_NestFactory_NestContainer"><path codeLine="90" d="M308.72,121.98 C269.87,139.09 233.72,163.56 210,198.59 C162.51,268.71 181.374,362.4124 206.184,431.5724 " fill="none" id="NestFactory-to-NestContainer" style="stroke:#181818;stroke-width:1.0;stroke-dasharray:7.0,7.0;"/><polygon fill="#181818" points="208.21,437.22,208.9361,427.3979,206.5217,432.5137,201.406,430.0993,208.21,437.22" style="stroke:#181818;stroke-width:1.0;"/><text fill="#000000" font-family="sans-serif" font-size="13" lengthAdjust="spacing" textLength="210.7612" x="211" y="284.1969">registers modules and providers</text></g><!--link NestContainer to ModuleMetadata--><g id="link_NestContainer_ModuleMetadata"><path codeLine="91" d="M427.74,600.14 C473.5,622.78 521.58,648.9 564,676.75 C574.93,683.92 581.3222,688.4502 591.8222,696.9302 " fill="none" id="NestContainer-to-ModuleMetadata" style="stroke:#181818;stroke-width:1.0;stroke-dasharray:7.0,7.0;"/><polygon fill="#181818" points="596.49,700.7,592.0015,691.9334,592.6002,697.5585,586.9751,698.1572,596.49,700.7" style="stroke:#181818;stroke-width:1.0;"/><text fill="#000000" font-family="sans-serif" font-size="13" lengthAdjust="spacing" textLength="59.8584" x="515" y="642.8169">manages</text></g><!--link NestContainer to AppService--><g id="link_NestContainer_AppService"><path codeLine="92" d="M466.18,594.17 C472.18,596.06 478.13,597.92 484,599.75 C602.36,636.47 636.43,632.01 752,676.75 C764.43,681.56 771.7273,684.5203 784.3873,690.2103 " fill="none" id="NestContainer-to-AppService" style="stroke:#181818;stroke-width:1.0;stroke-dasharray:7.0,7.0;"/><polygon fill="#181818" points="789.86,692.67,783.2908,685.3321,785.2994,690.6203,780.0112,692.6289,789.86,692.67" style="stroke:#181818;stroke-width:1.0;"/><text fill="#000000" font-family="sans-serif" font-size="13" lengthAdjust="spacing" textLength="54.1455" x="661" y="642.8169">resolves</text></g><!--link NestContainer to LoggerService--><g id="link_NestContainer_LoggerService"><path codeLine="93" d="M278.87,599.97 C289.61,624.69 299.0402,646.3865 309.7702,671.0965 " fill="none" id="NestContainer-to-LoggerService" style="stroke:#181818;stroke-width:1.0;stroke-dasharray:7.0,7.0;"/><polygon fill="#181818" points="312.16,676.6,312.2443,666.7515,310.1685,672.0137,304.9062,669.9379,312.16,676.6" style="stroke:#181818;stroke-width:1.0;"/><text fill="#000000" font-family="sans-serif" font-size="13" lengthAdjust="spacing" textLength="54.1455" x="299" y="642.8169">resolves</text></g><!--link NestContainer to OnModuleInit--><g id="link_NestContainer_OnModuleInit"><path codeLine="94" d="M130.39,599.83 C107.52,621.91 86.64,647.85 74,676.75 C45.12,742.74 29.19,782.42 74,838.82 C113.68,888.77 267.5962,916.9772 389.1162,932.1372 " fill="none" id="NestContainer-to-OnModuleInit" style="stroke:#181818;stroke-width:1.0;stroke-dasharray:7.0,7.0;"/><polygon fill="#181818" points="395.07,932.88,386.6344,927.7966,390.1085,932.261,385.6441,935.7351,395.07,932.88" style="stroke:#181818;stroke-width:1.0;"/><text fill="#000000" font-family="sans-serif" font-size="13" lengthAdjust="spacing" textLength="54.1455" x="75" y="762.3469">resolves</text></g><!--link INestApplication to NestContainer--><g id="link_INestApplication_NestContainer"><path codeLine="95" d="M542,361.06 C495.25,385.63 449.1607,409.8578 402.4107,434.4378 " fill="none" id="INestApplication-to-NestContainer" style="stroke:#181818;stroke-width:1.0;stroke-dasharray:7.0,7.0;"/><polygon fill="#181818" points="397.1,437.23,406.9275,436.5821,401.5256,434.9031,403.2046,429.5012,397.1,437.23" style="stroke:#181818;stroke-width:1.0;"/><text fill="#000000" font-family="sans-serif" font-size="13" lengthAdjust="spacing" textLength="29.7832" x="484" y="403.7369">uses</text></g><!--link INestApplication to ApplicationConfig--><g id="link_INestApplication_ApplicationConfig"><path codeLine="96" d="M764.4,360.89 C804.94,407.77 849.2957,459.0612 875.9257,489.8612 " fill="none" id="INestApplication-to-ApplicationConfig" style="stroke:#181818;stroke-width:1.0;stroke-dasharray:7.0,7.0;"/><polygon fill="#181818" points="879.85,494.4,876.9895,484.9757,876.5798,490.6177,870.9378,490.208,879.85,494.4" style="stroke:#181818;stroke-width:1.0;"/><text fill="#000000" font-family="sans-serif" font-size="13" lengthAdjust="spacing" textLength="29.7832" x="804" y="403.7369">uses</text></g><!--link INestApplication to HttpServer--><g id="link_INestApplication_HttpServer"><path codeLine="97" d="M671.21,360.88 C668.6,370.87 666.12,380.97 664,390.67 C659.54,411.06 656.5823,427.5698 653.4623,447.8498 " fill="none" id="INestApplication-to-HttpServer" style="stroke:#181818;stroke-width:1.0;stroke-dasharray:7.0,7.0;"/><polygon fill="#181818" points="652.55,453.78,657.872,445.4929,653.3103,448.8381,649.965,444.2764,652.55,453.78" style="stroke:#181818;stroke-width:1.0;"/><text fill="#000000" font-family="sans-serif" font-size="13" lengthAdjust="spacing" textLength="29.7832" x="665" y="403.7369">uses</text></g><!--SRC=[dLRRZjem47tVhnZjKn0i7s0XjjMsLLSgRTLzhFfWaY6uJUp8DdHfT_-zTd32E1T0vG68vypjpCMfUFgBvmYtdz5OU5jLXKYv5KhUmjyRS9-quCPGmOEI6v47wUiD0Nsqjdf2lKSTfFvp1xog6E1pfT6OEJ7KGgP4CvaGJODsLtrJEuk6d4-X4CQYJ2gbBGEvAzUe9mo-QbKAWukz4jcIe7Eqpcio6GyYokBHCq4GKIxRDb16WYREkjf9ggJbGde5Btfe7cUGraIoFhSqLI65JKQJkwlbWXVY3wvKjYiyKTU3axB-OS3buIerXzYBp5Mf2d_EgrvVgL018Itg3KyHliXZY8_EDwd051GHz7A55_2__Q96r4SLFL9W6AnujJ1M2vdFV5AKW2RRyoWXZUKoFMjh2ZpB-kJFe4JBCswvqwsFL-7PPTXcr1eOBKC7wZgVT8M3VFz1f6uKLB77TrYXp52cXoJ3gh7aleTP_C1Jg_GXgacgaTknRkfEn38A8VSDeWCZuxDogL6ZC3-fF4VjHrEuJgA1Hf9erMoKBhbTkUtWjc5Iu1uB1aq9o-DnSp1f_j16LtdIXtNgWLehtONDm6hNyVVZQh-vbfUDPxZUNH63MrThPV0SC2BJLQxFv9tFD_TrYXWbRavgoI1qyZyZ7H9LJygDozP5dPmBsxUFLaNHluv238n46OT-Kas6uPDuoju_yx9o3HntHc-fnQCTTQOe_Ouqz_qnJTjOXgJjQXgGkUkkPpF499L5q2BVMb0REjUj-c8HJfPqnptKaswSmOnS2mRi5ZsnqQtgjahjPyZZ0F6BHJY973xAdvXQlYuGrWTuSteCqtl1oQcGnC_fy9mhqWD3hiXSpESlo_Z2OhwU1POehMdGf1tdyoNLPx0pUCJH3UjHlPSH5fRjC3o-vbYxNqrppTM5QtkcjN7IyLOwRSgWvDAjYZ5ub4cuLCQmyMg-2E-G6g5xr0mHq18xYEw_rLxI8A-u0Tfj1WRJQ44DbDz1wCwuUVq7]--></g></svg>