<svg xmlns="http://www.w3.org/2000/svg" xmlns:xlink="http://www.w3.org/1999/xlink" contentStyleType="text/css" height="1247px" preserveAspectRatio="none" style="width:1493px;height:1247px;background:#FFFFFF;" version="1.1" viewBox="0 0 1493 1247" width="1493px" zoomAndPan="magnify"><defs/><g><rect fill="#FFFFFF" height="791.1875" style="stroke:#181818;stroke-width:1.0;" width="10" x="216.2144" y="112.4297"/><rect fill="#FFFFFF" height="29.1328" style="stroke:#181818;stroke-width:1.0;" width="10" x="500.5786" y="141.5625"/><rect fill="#FFFFFF" height="29.1328" style="stroke:#181818;stroke-width:1.0;" width="10" x="500.5786" y="241.9609"/><rect fill="#FFFFFF" height="29.1328" style="stroke:#181818;stroke-width:1.0;" width="10" x="500.5786" y="445.8906"/><rect fill="#FFFFFF" height="113.3984" style="stroke:#181818;stroke-width:1.0;" width="10" x="500.5786" y="546.2891"/><rect fill="#FFFFFF" height="113.3984" style="stroke:#181818;stroke-width:1.0;" width="10" x="500.5786" y="688.8203"/><rect fill="#FFFFFF" height="29.1328" style="stroke:#181818;stroke-width:1.0;" width="10" x="780.2202" y="358.4922"/><rect fill="#FFFFFF" height="457.7266" style="stroke:#181818;stroke-width:1.0;" width="10" x="780.2202" y="416.7578"/><rect fill="#FFFFFF" height="71.2656" style="stroke:#181818;stroke-width:1.0;" width="10" x="780.2202" y="932.75"/><rect fill="#FFFFFF" height="14" style="stroke:#181818;stroke-width:1.0;" width="10" x="1101.1611" y="831.3516"/><rect fill="#FFFFFF" height="57.1328" style="stroke:#181818;stroke-width:1.0;" width="10" x="1101.1611" y="1062.2813"/><rect fill="#FFFFFF" height="115.3984" style="stroke:#181818;stroke-width:1.0;" width="10" x="1226.8169" y="1033.1484"/><rect fill="#FFFFFF" height="14" style="stroke:#181818;stroke-width:1.0;" width="10" x="1373.4414" y="1091.4141"/><line style="stroke:#181818;stroke-width:0.5;stroke-dasharray:5.0,5.0;" x1="41" x2="41" y1="81.2969" y2="1166.5469"/><line style="stroke:#181818;stroke-width:0.5;stroke-dasharray:5.0,5.0;" x1="221.0674" x2="221.0674" y1="81.2969" y2="1166.5469"/><line style="stroke:#181818;stroke-width:0.5;stroke-dasharray:5.0,5.0;" x1="505.437" x2="505.437" y1="81.2969" y2="1166.5469"/><line style="stroke:#181818;stroke-width:0.5;stroke-dasharray:5.0,5.0;" x1="785.1094" x2="785.1094" y1="81.2969" y2="1166.5469"/><line style="stroke:#181818;stroke-width:0.5;stroke-dasharray:5.0,5.0;" x1="1003.3574" x2="1003.3574" y1="81.2969" y2="1166.5469"/><line style="stroke:#181818;stroke-width:0.5;stroke-dasharray:5.0,5.0;" x1="1105.6152" x2="1105.6152" y1="81.2969" y2="1166.5469"/><line style="stroke:#181818;stroke-width:0.5;stroke-dasharray:5.0,5.0;" x1="1231.5552" x2="1231.5552" y1="81.2969" y2="1166.5469"/><line style="stroke:#181818;stroke-width:0.5;stroke-dasharray:5.0,5.0;" x1="1378.3169" x2="1378.3169" y1="81.2969" y2="1166.5469"/><line style="stroke:#181818;stroke-width:0.5;stroke-dasharray:5.0,5.0;" x1="1468.5659" x2="1468.5659" y1="81.2969" y2="1166.5469"/><text fill="#000000" font-family="sans-serif" font-size="14" lengthAdjust="spacing" textLength="67.5117" x="5" y="77.9951">bootstrap</text><ellipse cx="41.7559" cy="13.5" fill="#E2E2F0" rx="8" ry="8" style="stroke:#181818;stroke-width:0.5;"/><path d="M41.7559,21.5 L41.7559,48.5 M28.7559,29.5 L54.7559,29.5 M41.7559,48.5 L28.7559,63.5 M41.7559,48.5 L54.7559,63.5 " fill="none" style="stroke:#181818;stroke-width:0.5;"/><text fill="#000000" font-family="sans-serif" font-size="14" lengthAdjust="spacing" textLength="67.5117" x="5" y="1178.542">bootstrap</text><ellipse cx="41.7559" cy="1190.3438" fill="#E2E2F0" rx="8" ry="8" style="stroke:#181818;stroke-width:0.5;"/><path d="M41.7559,1198.3438 L41.7559,1225.3438 M28.7559,1206.3438 L54.7559,1206.3438 M41.7559,1225.3438 L28.7559,1240.3438 M41.7559,1225.3438 L54.7559,1240.3438 " fill="none" style="stroke:#181818;stroke-width:0.5;"/><rect fill="#E2E2F0" height="30.2969" rx="2.5" ry="2.5" style="stroke:#181818;stroke-width:0.5;" width="98.2939" x="172.0674" y="50"/><text fill="#000000" font-family="sans-serif" font-size="14" lengthAdjust="spacing" textLength="84.2939" x="179.0674" y="69.9951">NestFactory</text><rect fill="#E2E2F0" height="30.2969" rx="2.5" ry="2.5" style="stroke:#181818;stroke-width:0.5;" width="98.2939" x="172.0674" y="1165.5469"/><text fill="#000000" font-family="sans-serif" font-size="14" lengthAdjust="spacing" textLength="84.2939" x="179.0674" y="1185.542">NestFactory</text><rect fill="#E2E2F0" height="30.2969" rx="2.5" ry="2.5" style="stroke:#181818;stroke-width:0.5;" width="114.2832" x="448.437" y="50"/><text fill="#000000" font-family="sans-serif" font-size="14" lengthAdjust="spacing" textLength="100.2832" x="455.437" y="69.9951">NestContainer</text><rect fill="#E2E2F0" height="30.2969" rx="2.5" ry="2.5" style="stroke:#181818;stroke-width:0.5;" width="114.2832" x="448.437" y="1165.5469"/><text fill="#000000" font-family="sans-serif" font-size="14" lengthAdjust="spacing" textLength="100.2832" x="455.437" y="1185.542">NestContainer</text><rect fill="#E2E2F0" height="30.2969" rx="2.5" ry="2.5" style="stroke:#181818;stroke-width:0.5;" width="128.2217" x="721.1094" y="50"/><text fill="#000000" font-family="sans-serif" font-size="14" lengthAdjust="spacing" textLength="114.2217" x="728.1094" y="69.9951">INestApplication</text><rect fill="#E2E2F0" height="30.2969" rx="2.5" ry="2.5" style="stroke:#181818;stroke-width:0.5;" width="128.2217" x="721.1094" y="1165.5469"/><text fill="#000000" font-family="sans-serif" font-size="14" lengthAdjust="spacing" textLength="114.2217" x="728.1094" y="1185.542">INestApplication</text><rect fill="#E2E2F0" height="30.2969" rx="2.5" ry="2.5" style="stroke:#181818;stroke-width:0.5;" width="92.2578" x="957.3574" y="50"/><text fill="#000000" font-family="sans-serif" font-size="14" lengthAdjust="spacing" textLength="78.2578" x="964.3574" y="69.9951">AppModule</text><rect fill="#E2E2F0" height="30.2969" rx="2.5" ry="2.5" style="stroke:#181818;stroke-width:0.5;" width="92.2578" x="957.3574" y="1165.5469"/><text fill="#000000" font-family="sans-serif" font-size="14" lengthAdjust="spacing" textLength="78.2578" x="964.3574" y="1185.542">AppModule</text><rect fill="#E2E2F0" height="30.2969" rx="2.5" ry="2.5" style="stroke:#181818;stroke-width:0.5;" width="93.0918" x="1059.6152" y="50"/><text fill="#000000" font-family="sans-serif" font-size="14" lengthAdjust="spacing" textLength="79.0918" x="1066.6152" y="69.9951">AppService</text><rect fill="#E2E2F0" height="30.2969" rx="2.5" ry="2.5" style="stroke:#181818;stroke-width:0.5;" width="93.0918" x="1059.6152" y="1165.5469"/><text fill="#000000" font-family="sans-serif" font-size="14" lengthAdjust="spacing" textLength="79.0918" x="1066.6152" y="1185.542">AppService</text><rect fill="#E2E2F0" height="30.2969" rx="2.5" ry="2.5" style="stroke:#181818;stroke-width:0.5;" width="110.5234" x="1176.5552" y="50"/><text fill="#000000" font-family="sans-serif" font-size="14" lengthAdjust="spacing" textLength="96.5234" x="1183.5552" y="69.9951">AppController</text><rect fill="#E2E2F0" height="30.2969" rx="2.5" ry="2.5" style="stroke:#181818;stroke-width:0.5;" width="110.5234" x="1176.5552" y="1165.5469"/><text fill="#000000" font-family="sans-serif" font-size="14" lengthAdjust="spacing" textLength="96.5234" x="1183.5552" y="1185.542">AppController</text><rect fill="#E2E2F0" height="30.2969" rx="2.5" ry="2.5" style="stroke:#181818;stroke-width:0.5;" width="114.249" x="1321.3169" y="50"/><text fill="#000000" font-family="sans-serif" font-size="14" lengthAdjust="spacing" textLength="100.249" x="1328.3169" y="69.9951">LoggerService</text><rect fill="#E2E2F0" height="30.2969" rx="2.5" ry="2.5" style="stroke:#181818;stroke-width:0.5;" width="114.249" x="1321.3169" y="1165.5469"/><text fill="#000000" font-family="sans-serif" font-size="14" lengthAdjust="spacing" textLength="100.249" x="1328.3169" y="1185.542">LoggerService</text><text fill="#000000" font-family="sans-serif" font-size="14" lengthAdjust="spacing" textLength="40.5303" x="1445.5659" y="77.9951">Client</text><ellipse cx="1468.8311" cy="13.5" fill="#E2E2F0" rx="8" ry="8" style="stroke:#181818;stroke-width:0.5;"/><path d="M1468.8311,21.5 L1468.8311,48.5 M1455.8311,29.5 L1481.8311,29.5 M1468.8311,48.5 L1455.8311,63.5 M1468.8311,48.5 L1481.8311,63.5 " fill="none" style="stroke:#181818;stroke-width:0.5;"/><text fill="#000000" font-family="sans-serif" font-size="14" lengthAdjust="spacing" textLength="40.5303" x="1445.5659" y="1178.542">Client</text><ellipse cx="1468.8311" cy="1190.3438" fill="#E2E2F0" rx="8" ry="8" style="stroke:#181818;stroke-width:0.5;"/><path d="M1468.8311,1198.3438 L1468.8311,1225.3438 M1455.8311,1206.3438 L1481.8311,1206.3438 M1468.8311,1225.3438 L1455.8311,1240.3438 M1468.8311,1225.3438 L1481.8311,1240.3438 " fill="none" style="stroke:#181818;stroke-width:0.5;"/><rect fill="#FFFFFF" height="791.1875" style="stroke:#181818;stroke-width:1.0;" width="10" x="216.2144" y="112.4297"/><rect fill="#FFFFFF" height="29.1328" style="stroke:#181818;stroke-width:1.0;" width="10" x="500.5786" y="141.5625"/><rect fill="#FFFFFF" height="29.1328" style="stroke:#181818;stroke-width:1.0;" width="10" x="500.5786" y="241.9609"/><rect fill="#FFFFFF" height="29.1328" style="stroke:#181818;stroke-width:1.0;" width="10" x="500.5786" y="445.8906"/><rect fill="#FFFFFF" height="113.3984" style="stroke:#181818;stroke-width:1.0;" width="10" x="500.5786" y="546.2891"/><rect fill="#FFFFFF" height="113.3984" style="stroke:#181818;stroke-width:1.0;" width="10" x="500.5786" y="688.8203"/><rect fill="#FFFFFF" height="29.1328" style="stroke:#181818;stroke-width:1.0;" width="10" x="780.2202" y="358.4922"/><rect fill="#FFFFFF" height="457.7266" style="stroke:#181818;stroke-width:1.0;" width="10" x="780.2202" y="416.7578"/><rect fill="#FFFFFF" height="71.2656" style="stroke:#181818;stroke-width:1.0;" width="10" x="780.2202" y="932.75"/><rect fill="#FFFFFF" height="14" style="stroke:#181818;stroke-width:1.0;" width="10" x="1101.1611" y="831.3516"/><rect fill="#FFFFFF" height="57.1328" style="stroke:#181818;stroke-width:1.0;" width="10" x="1101.1611" y="1062.2813"/><rect fill="#FFFFFF" height="115.3984" style="stroke:#181818;stroke-width:1.0;" width="10" x="1226.8169" y="1033.1484"/><rect fill="#FFFFFF" height="14" style="stroke:#181818;stroke-width:1.0;" width="10" x="1373.4414" y="1091.4141"/><polygon fill="#181818" points="204.2144,108.4297,214.2144,112.4297,204.2144,116.4297,208.2144,112.4297" style="stroke:#181818;stroke-width:1.0;"/><line style="stroke:#181818;stroke-width:1.0;" x1="41.7559" x2="210.2144" y1="112.4297" y2="112.4297"/><text fill="#000000" font-family="sans-serif" font-size="13" lengthAdjust="spacing" textLength="124.3633" x="48.7559" y="107.3638">create(AppModule)</text><polygon fill="#181818" points="488.5786,137.5625,498.5786,141.5625,488.5786,145.5625,492.5786,141.5625" style="stroke:#181818;stroke-width:1.0;"/><line style="stroke:#181818;stroke-width:1.0;" x1="226.2144" x2="494.5786" y1="141.5625" y2="141.5625"/><text fill="#000000" font-family="sans-serif" font-size="13" lengthAdjust="spacing" textLength="134.2656" x="233.2144" y="136.4966">new NestContainer()</text><polygon fill="#181818" points="237.2144,166.6953,227.2144,170.6953,237.2144,174.6953,233.2144,170.6953" style="stroke:#181818;stroke-width:1.0;"/><line style="stroke:#181818;stroke-width:1.0;stroke-dasharray:2.0,2.0;" x1="231.2144" x2="504.5786" y1="170.6953" y2="170.6953"/><text fill="#000000" font-family="sans-serif" font-size="13" lengthAdjust="spacing" textLength="61.5977" x="243.2144" y="165.6294">container</text><line style="stroke:#181818;stroke-width:1.0;" x1="226.2144" x2="268.2144" y1="199.8281" y2="199.8281"/><line style="stroke:#181818;stroke-width:1.0;" x1="268.2144" x2="268.2144" y1="199.8281" y2="212.8281"/><line style="stroke:#181818;stroke-width:1.0;" x1="227.2144" x2="268.2144" y1="212.8281" y2="212.8281"/><polygon fill="#181818" points="237.2144,208.8281,227.2144,212.8281,237.2144,216.8281,233.2144,212.8281" style="stroke:#181818;stroke-width:1.0;"/><text fill="#000000" font-family="sans-serif" font-size="13" lengthAdjust="spacing" textLength="250.3643" x="233.2144" y="194.7622">registerModule(container, AppModule)</text><polygon fill="#181818" points="488.5786,237.9609,498.5786,241.9609,488.5786,245.9609,492.5786,241.9609" style="stroke:#181818;stroke-width:1.0;"/><line style="stroke:#181818;stroke-width:1.0;" x1="226.2144" x2="494.5786" y1="241.9609" y2="241.9609"/><text fill="#000000" font-family="sans-serif" font-size="13" lengthAdjust="spacing" textLength="225.8242" x="233.2144" y="236.895">addModule(AppModule, metadata)</text><polygon fill="#181818" points="237.2144,267.0938,227.2144,271.0938,237.2144,275.0938,233.2144,271.0938" style="stroke:#181818;stroke-width:1.0;"/><line style="stroke:#181818;stroke-width:1.0;stroke-dasharray:2.0,2.0;" x1="231.2144" x2="504.5786" y1="271.0938" y2="271.0938"/><text fill="#000000" font-family="sans-serif" font-size="13" lengthAdjust="spacing" textLength="93.5708" x="243.2144" y="266.0278">module added</text><polygon fill="#181818" points="493.5786,296.2266,503.5786,300.2266,493.5786,304.2266,497.5786,300.2266" style="stroke:#181818;stroke-width:1.0;"/><line style="stroke:#181818;stroke-width:1.0;" x1="226.2144" x2="499.5786" y1="300.2266" y2="300.2266"/><text fill="#000000" font-family="sans-serif" font-size="13" lengthAdjust="spacing" textLength="181.7397" x="233.2144" y="295.1606">addProvider(LoggerService)</text><polygon fill="#181818" points="493.5786,325.3594,503.5786,329.3594,493.5786,333.3594,497.5786,329.3594" style="stroke:#181818;stroke-width:1.0;"/><line style="stroke:#181818;stroke-width:1.0;" x1="226.2144" x2="499.5786" y1="329.3594" y2="329.3594"/><text fill="#000000" font-family="sans-serif" font-size="13" lengthAdjust="spacing" textLength="162.0938" x="233.2144" y="324.2935">addProvider(AppService)</text><polygon fill="#181818" points="768.2202,354.4922,778.2202,358.4922,768.2202,362.4922,772.2202,358.4922" style="stroke:#181818;stroke-width:1.0;"/><line style="stroke:#181818;stroke-width:1.0;" x1="226.2144" x2="774.2202" y1="358.4922" y2="358.4922"/><text fill="#000000" font-family="sans-serif" font-size="13" lengthAdjust="spacing" textLength="256.8516" x="233.2144" y="353.4263">new INestApplication(container, config)</text><polygon fill="#181818" points="237.2144,383.625,227.2144,387.625,237.2144,391.625,233.2144,387.625" style="stroke:#181818;stroke-width:1.0;"/><line style="stroke:#181818;stroke-width:1.0;stroke-dasharray:2.0,2.0;" x1="231.2144" x2="784.2202" y1="387.625" y2="387.625"/><text fill="#000000" font-family="sans-serif" font-size="13" lengthAdjust="spacing" textLength="130.9141" x="243.2144" y="382.5591">application instance</text><polygon fill="#181818" points="768.2202,412.7578,778.2202,416.7578,768.2202,420.7578,772.2202,416.7578" style="stroke:#181818;stroke-width:1.0;"/><line style="stroke:#181818;stroke-width:1.0;" x1="226.2144" x2="774.2202" y1="416.7578" y2="416.7578"/><text fill="#000000" font-family="sans-serif" font-size="13" lengthAdjust="spacing" textLength="59.3062" x="233.2144" y="411.6919">app.init()</text><polygon fill="#181818" points="521.5786,441.8906,511.5786,445.8906,521.5786,449.8906,517.5786,445.8906" style="stroke:#181818;stroke-width:1.0;"/><line style="stroke:#181818;stroke-width:1.0;" x1="515.5786" x2="779.2202" y1="445.8906" y2="445.8906"/><text fill="#000000" font-family="sans-serif" font-size="13" lengthAdjust="spacing" textLength="85.5347" x="527.5786" y="440.8247">getModules()</text><polygon fill="#181818" points="768.2202,471.0234,778.2202,475.0234,768.2202,479.0234,772.2202,475.0234" style="stroke:#181818;stroke-width:1.0;"/><line style="stroke:#181818;stroke-width:1.0;stroke-dasharray:2.0,2.0;" x1="505.5786" x2="774.2202" y1="475.0234" y2="475.0234"/><text fill="#000000" font-family="sans-serif" font-size="13" lengthAdjust="spacing" textLength="55.4912" x="512.5786" y="469.9575">modules</text><line style="stroke:#181818;stroke-width:1.0;" x1="790.2202" x2="832.2202" y1="504.1563" y2="504.1563"/><line style="stroke:#181818;stroke-width:1.0;" x1="832.2202" x2="832.2202" y1="504.1563" y2="517.1563"/><line style="stroke:#181818;stroke-width:1.0;" x1="791.2202" x2="832.2202" y1="517.1563" y2="517.1563"/><polygon fill="#181818" points="801.2202,513.1563,791.2202,517.1563,801.2202,521.1563,797.2202,517.1563" style="stroke:#181818;stroke-width:1.0;"/><text fill="#000000" font-family="sans-serif" font-size="13" lengthAdjust="spacing" textLength="184.2661" x="797.2202" y="499.0903">initializeModule(AppModule)</text><polygon fill="#181818" points="521.5786,542.2891,511.5786,546.2891,521.5786,550.2891,517.5786,546.2891" style="stroke:#181818;stroke-width:1.0;"/><line style="stroke:#181818;stroke-width:1.0;" x1="515.5786" x2="779.2202" y1="546.2891" y2="546.2891"/><text fill="#000000" font-family="sans-serif" font-size="13" lengthAdjust="spacing" textLength="232.4321" x="527.5786" y="541.2231">resolveDependency(LoggerService)</text><line style="stroke:#181818;stroke-width:1.0;" x1="510.5786" x2="552.5786" y1="575.4219" y2="575.4219"/><line style="stroke:#181818;stroke-width:1.0;" x1="552.5786" x2="552.5786" y1="575.4219" y2="588.4219"/><line style="stroke:#181818;stroke-width:1.0;" x1="511.5786" x2="552.5786" y1="588.4219" y2="588.4219"/><polygon fill="#181818" points="521.5786,584.4219,511.5786,588.4219,521.5786,592.4219,517.5786,588.4219" style="stroke:#181818;stroke-width:1.0;"/><text fill="#000000" font-family="sans-serif" font-size="13" lengthAdjust="spacing" textLength="178.6167" x="517.5786" y="570.356">getProvider(LoggerService)</text><line style="stroke:#181818;stroke-width:1.0;" x1="510.5786" x2="552.5786" y1="617.5547" y2="617.5547"/><line style="stroke:#181818;stroke-width:1.0;" x1="552.5786" x2="552.5786" y1="617.5547" y2="630.5547"/><line style="stroke:#181818;stroke-width:1.0;" x1="511.5786" x2="552.5786" y1="630.5547" y2="630.5547"/><polygon fill="#181818" points="521.5786,626.5547,511.5786,630.5547,521.5786,634.5547,517.5786,630.5547" style="stroke:#181818;stroke-width:1.0;"/><text fill="#000000" font-family="sans-serif" font-size="13" lengthAdjust="spacing" textLength="245.6416" x="517.5786" y="612.4888">create new instance of LoggerService</text><polygon fill="#181818" points="768.2202,655.6875,778.2202,659.6875,768.2202,663.6875,772.2202,659.6875" style="stroke:#181818;stroke-width:1.0;"/><line style="stroke:#181818;stroke-width:1.0;stroke-dasharray:2.0,2.0;" x1="505.5786" x2="774.2202" y1="659.6875" y2="659.6875"/><text fill="#000000" font-family="sans-serif" font-size="13" lengthAdjust="spacing" textLength="152.293" x="512.5786" y="654.6216">LoggerService instance</text><polygon fill="#181818" points="521.5786,684.8203,511.5786,688.8203,521.5786,692.8203,517.5786,688.8203" style="stroke:#181818;stroke-width:1.0;"/><line style="stroke:#181818;stroke-width:1.0;" x1="515.5786" x2="779.2202" y1="688.8203" y2="688.8203"/><text fill="#000000" font-family="sans-serif" font-size="13" lengthAdjust="spacing" textLength="212.7861" x="527.5786" y="683.7544">resolveDependency(AppService)</text><line style="stroke:#181818;stroke-width:1.0;" x1="510.5786" x2="552.5786" y1="717.9531" y2="717.9531"/><line style="stroke:#181818;stroke-width:1.0;" x1="552.5786" x2="552.5786" y1="717.9531" y2="730.9531"/><line style="stroke:#181818;stroke-width:1.0;" x1="511.5786" x2="552.5786" y1="730.9531" y2="730.9531"/><polygon fill="#181818" points="521.5786,726.9531,511.5786,730.9531,521.5786,734.9531,517.5786,730.9531" style="stroke:#181818;stroke-width:1.0;"/><text fill="#000000" font-family="sans-serif" font-size="13" lengthAdjust="spacing" textLength="158.9707" x="517.5786" y="712.8872">getProvider(AppService)</text><line style="stroke:#181818;stroke-width:1.0;" x1="510.5786" x2="552.5786" y1="760.0859" y2="760.0859"/><line style="stroke:#181818;stroke-width:1.0;" x1="552.5786" x2="552.5786" y1="760.0859" y2="773.0859"/><line style="stroke:#181818;stroke-width:1.0;" x1="511.5786" x2="552.5786" y1="773.0859" y2="773.0859"/><polygon fill="#181818" points="521.5786,769.0859,511.5786,773.0859,521.5786,777.0859,517.5786,773.0859" style="stroke:#181818;stroke-width:1.0;"/><text fill="#000000" font-family="sans-serif" font-size="13" lengthAdjust="spacing" textLength="225.9956" x="517.5786" y="755.02">create new instance of AppService</text><polygon fill="#181818" points="768.2202,798.2188,778.2202,802.2188,768.2202,806.2188,772.2202,802.2188" style="stroke:#181818;stroke-width:1.0;"/><line style="stroke:#181818;stroke-width:1.0;stroke-dasharray:2.0,2.0;" x1="505.5786" x2="774.2202" y1="802.2188" y2="802.2188"/><text fill="#000000" font-family="sans-serif" font-size="13" lengthAdjust="spacing" textLength="132.647" x="512.5786" y="797.1528">AppService instance</text><polygon fill="#181818" points="1089.1611,827.3516,1099.1611,831.3516,1089.1611,835.3516,1093.1611,831.3516" style="stroke:#181818;stroke-width:1.0;"/><line style="stroke:#181818;stroke-width:1.0;" x1="790.2202" x2="1095.1611" y1="831.3516" y2="831.3516"/><text fill="#000000" font-family="sans-serif" font-size="13" lengthAdjust="spacing" textLength="94.3896" x="797.2202" y="826.2856">onModuleInit()</text><polygon fill="#181818" points="801.2202,841.3516,791.2202,845.3516,801.2202,849.3516,797.2202,845.3516" style="stroke:#181818;stroke-width:1.0;"/><line style="stroke:#181818;stroke-width:1.0;stroke-dasharray:2.0,2.0;" x1="795.2202" x2="1105.1611" y1="845.3516" y2="845.3516"/><polygon fill="#181818" points="237.2144,870.4844,227.2144,874.4844,237.2144,878.4844,233.2144,874.4844" style="stroke:#181818;stroke-width:1.0;"/><line style="stroke:#181818;stroke-width:1.0;stroke-dasharray:2.0,2.0;" x1="231.2144" x2="784.2202" y1="874.4844" y2="874.4844"/><text fill="#000000" font-family="sans-serif" font-size="13" lengthAdjust="spacing" textLength="143.9077" x="243.2144" y="869.4185">initialization complete</text><polygon fill="#181818" points="52.7559,899.6172,42.7559,903.6172,52.7559,907.6172,48.7559,903.6172" style="stroke:#181818;stroke-width:1.0;"/><line style="stroke:#181818;stroke-width:1.0;" x1="46.7559" x2="220.2144" y1="903.6172" y2="903.6172"/><text fill="#000000" font-family="sans-serif" font-size="13" lengthAdjust="spacing" textLength="150.4585" x="58.7559" y="898.5513">return INestApplication</text><polygon fill="#181818" points="768.2202,928.75,778.2202,932.75,768.2202,936.75,772.2202,932.75" style="stroke:#181818;stroke-width:1.0;"/><line style="stroke:#181818;stroke-width:1.0;" x1="41.7559" x2="774.2202" y1="932.75" y2="932.75"/><text fill="#000000" font-family="sans-serif" font-size="13" lengthAdjust="spacing" textLength="78.5586" x="48.7559" y="927.6841">listen(3000)</text><line style="stroke:#181818;stroke-width:1.0;" x1="790.2202" x2="832.2202" y1="961.8828" y2="961.8828"/><line style="stroke:#181818;stroke-width:1.0;" x1="832.2202" x2="832.2202" y1="961.8828" y2="974.8828"/><line style="stroke:#181818;stroke-width:1.0;" x1="791.2202" x2="832.2202" y1="974.8828" y2="974.8828"/><polygon fill="#181818" points="801.2202,970.8828,791.2202,974.8828,801.2202,978.8828,797.2202,974.8828" style="stroke:#181818;stroke-width:1.0;"/><text fill="#000000" font-family="sans-serif" font-size="13" lengthAdjust="spacing" textLength="113.1914" x="797.2202" y="956.8169">start HTTP server</text><polygon fill="#181818" points="52.7559,1000.0156,42.7559,1004.0156,52.7559,1008.0156,48.7559,1004.0156" style="stroke:#181818;stroke-width:1.0;"/><line style="stroke:#181818;stroke-width:1.0;stroke-dasharray:2.0,2.0;" x1="46.7559" x2="784.2202" y1="1004.0156" y2="1004.0156"/><text fill="#000000" font-family="sans-serif" font-size="13" lengthAdjust="spacing" textLength="126.0073" x="58.7559" y="998.9497">application running</text><polygon fill="#181818" points="1247.8169,1029.1484,1237.8169,1033.1484,1247.8169,1037.1484,1243.8169,1033.1484" style="stroke:#181818;stroke-width:1.0;"/><line style="stroke:#181818;stroke-width:1.0;" x1="1241.8169" x2="1467.8311" y1="1033.1484" y2="1033.1484"/><text fill="#000000" font-family="sans-serif" font-size="13" lengthAdjust="spacing" textLength="90.9238" x="1253.8169" y="1028.0825">GET /example</text><polygon fill="#181818" points="1122.1611,1058.2813,1112.1611,1062.2813,1122.1611,1066.2813,1118.1611,1062.2813" style="stroke:#181818;stroke-width:1.0;"/><line style="stroke:#181818;stroke-width:1.0;" x1="1116.1611" x2="1225.8169" y1="1062.2813" y2="1062.2813"/><text fill="#000000" font-family="sans-serif" font-size="13" lengthAdjust="spacing" textLength="96.6558" x="1128.1611" y="1057.2153">doSomething()</text><polygon fill="#181818" points="1361.4414,1087.4141,1371.4414,1091.4141,1361.4414,1095.4141,1365.4414,1091.4141" style="stroke:#181818;stroke-width:1.0;"/><line style="stroke:#181818;stroke-width:1.0;" x1="1111.1611" x2="1367.4414" y1="1091.4141" y2="1091.4141"/><text fill="#000000" font-family="sans-serif" font-size="13" lengthAdjust="spacing" textLength="243.2803" x="1118.1611" y="1086.3481">log("AppService is doing something")</text><polygon fill="#181818" points="1122.1611,1101.4141,1112.1611,1105.4141,1122.1611,1109.4141,1118.1611,1105.4141" style="stroke:#181818;stroke-width:1.0;"/><line style="stroke:#181818;stroke-width:1.0;stroke-dasharray:2.0,2.0;" x1="1116.1611" x2="1377.4414" y1="1105.4141" y2="1105.4141"/><polygon fill="#181818" points="1214.8169,1115.4141,1224.8169,1119.4141,1214.8169,1123.4141,1218.8169,1119.4141" style="stroke:#181818;stroke-width:1.0;"/><line style="stroke:#181818;stroke-width:1.0;stroke-dasharray:2.0,2.0;" x1="1106.1611" x2="1220.8169" y1="1119.4141" y2="1119.4141"/><polygon fill="#181818" points="1456.8311,1144.5469,1466.8311,1148.5469,1456.8311,1152.5469,1460.8311,1148.5469" style="stroke:#181818;stroke-width:1.0;"/><line style="stroke:#181818;stroke-width:1.0;stroke-dasharray:2.0,2.0;" x1="1231.8169" x2="1462.8311" y1="1148.5469" y2="1148.5469"/><text fill="#000000" font-family="sans-serif" font-size="13" lengthAdjust="spacing" textLength="59.3315" x="1238.8169" y="1143.481">response</text><!--SRC=[ZLJ1Yjim4BtxAqHE3kosWTvwM31kqmQoOS7v0TMUTGMEPAH9sktNTsJPiYJ7xDw2vxtHc_ScmsjKclrI2WrgtcTPppMAMlHS8jkSmE2UMyZRXd73JljblLGIkP2W7QAC4GSBAVg-4pL7eUG0EfoA64M0PzLSEnZAnVEYMe6-YNeiLukorQ1LruqYYaJ4KRKjwB37iSg6iLZP2P2OPTu1zlX4OxAlhDR04N8lRMiPuaRVh0qPOIoo9AI4Fono8W-nPKQWHzzrmcGDX9YfdyLeQ8L1qExTt5CUM20c5C2RPiHwm0Ex0FA68r_NSXcGbWtDYfon-ujMDz7GO96JspNK79ZNIP6FJgKR4Sv7Frz56oYscsAfNZEVYKn8WrpM46gtXEX98dmIKc2UT7LjH_4jeBFDt8_EjN9-cTIgiP73sAS4xyG_I1FPHYzgCAgxmJVeGJOWwxVKsbJ5h7GrZ1dbTdUmUpA9gLSM4UBPej9TPuDHLoO8O_-0_13-llOP7GkVlx-dkgW8hgHBuv2i11qLgizjmnvKYvVGX-psi5QNlWDSsyFvj5ZJyAhbuZyGATudryW9wkn9aFcNtMwtiiaEHnPeP3_FvnTco1SwD9FqK4VuDz9NAOLi5-hTQHoSixdy-7vcd-4ljxC6lfLPKNft6rKfkZk_gTqTSv_exDf9L9jlmjWCyOZ1pCJT15owr4SNpF12gFBeCni49f4LRal6AOPzxPKqKKf5-Hy0]--></g></svg>